# xmcd
#
# Track frame offsets:
#	150
#	18932
#	34238
#	51519
#	65731
#	82453
#	97246
#	113710
#	130327
#	146114
#	165453
#	182796
#	195189
#	209633
#	223948
#	239925
#	256261
#	272035
#	287123
#	302490
#	318689
#	333001
#
# Disc length: 4644 seconds
#
# Revision: 0
# Processed by: cddbd v1.5.2PL0 Copyright (c) Steve Scherf et al.
# Submitted via: dBpowerAMP V4.0
#
DISCID=65122216
DTITLE=Various Artist - ERG Nu Country Traxx Vol. 236 CAN
DYEAR=2014
DGENRE=Country
TTITLE0=Tebey - Wake Me Up
TTITLE1=Tim McGraw - Lookin' For That Girl
TTITLE2=Dean Brody - Crop Circles
TTITLE3=Tebey - Let it Down
TTITLE4=Florida Georgia Line ft. Luke Bryan - This Is How We Roll
TTITLE5=Tim Hicks ft. Blackjack Billy - Got A Feeling
TTITLE6=Eric Church - Give Me Back My Hometown
TTITLE7=Brantley Gilbert - Bottoms Up
TTITLE8=Deric Ruttan - Pass It Around
TTITLE9=Keith Urban - Cop Car
TTITLE10=Joe Nichols - Yeah
TTITLE11=Lindsay Ell - Trippin On Us
TTITLE12=Chris Young - Who I Am With You
TTITLE13=Easton Corbin - Clockwork
TTITLE14=Joel Crouse - Why God Made Love Songs
TTITLE15=Blake Shelton - Doin' What She Likes
TTITLE16=Gord Bamford - Unreal
TTITLE17=Eli Young Band - Dust
TTITLE18=Rascal Flatts - Rewind
TTITLE19=Parmalee - Close Your Eyes
TTITLE20=Kelleigh Bannen - Famous
TTITLE21=One More Girl - Love Like Mine
EXTD=
EXTT0=
EXTT1=
EXTT2=
EXTT3=
EXTT4=
EXTT5=
EXTT6=
EXTT7=
EXTT8=
EXTT9=
EXTT10=
EXTT11=
EXTT12=
EXTT13=
EXTT14=
EXTT15=
EXTT16=
EXTT17=
EXTT18=
EXTT19=
EXTT20=
EXTT21=
PLAYORDER=
